<?xml version="1.0" encoding="utf-8"?>
<!-- Generator: Adobe Illustrator 23.1.0, SVG Export Plug-In . SVG Version: 6.00 Build 0)  -->
<svg version="1.1" id="Layer_1" xmlns="http://www.w3.org/2000/svg" xmlns:xlink="http://www.w3.org/1999/xlink" x="0px" y="0px"
	 viewBox="0 0 526.1 175.4" style="enable-background:new 0 0 526.1 175.4;" xml:space="preserve">
<style type="text/css">
	.st0{fill:#FFFFFF;}
	.st1{fill:none;}
	.st2{fill:#4176B9;}
	.st3{fill:#45B549;}
</style>
<g>
	<g>
		<path class="st0" d="M52.9,126.8l-3.4,10.1H48l-2.8-8.1l-2.8,8.1h-1.5l-3.4-10.1H39l2.7,8.2l2.8-8.2h1.3l2.8,8.3l2.8-8.3H52.9z"/>
		<path class="st0" d="M72.5,135.6v1.3h-7.3v-10.1h7.1v1.3h-5.7v3.1h5.1v1.2h-5.1v3.3H72.5z"/>
		<path class="st0" d="M94.1,134.2c0,1.7-1.3,2.7-3.9,2.7h-4.8v-10.1H90c2.3,0,3.6,1,3.6,2.6c0,1.1-0.6,1.9-1.4,2.3
			C93.4,132,94.1,132.8,94.1,134.2z M86.9,128v3.2h3c1.5,0,2.3-0.5,2.3-1.6c0-1.1-0.8-1.6-2.3-1.6H86.9z M92.7,134.1
			c0-1.2-0.9-1.7-2.5-1.7h-3.3v3.4h3.3C91.8,135.7,92.7,135.2,92.7,134.1z"/>
		<path class="st0" d="M130.1,134.2c0,1.7-1.3,2.7-3.9,2.7h-4.8v-10.1h4.5c2.3,0,3.6,1,3.6,2.6c0,1.1-0.6,1.9-1.4,2.3
			C129.4,132,130.1,132.8,130.1,134.2z M122.9,128v3.2h3c1.5,0,2.3-0.5,2.3-1.6c0-1.1-0.8-1.6-2.3-1.6H122.9z M128.7,134.1
			c0-1.2-0.9-1.7-2.5-1.7h-3.3v3.4h3.3C127.8,135.7,128.7,135.2,128.7,134.1z"/>
		<path class="st0" d="M142.9,132.5v-5.7h1.4v5.7c0,2.2,1,3.2,2.8,3.2c1.8,0,2.9-1,2.9-3.2v-5.7h1.4v5.7c0,2.9-1.6,4.5-4.3,4.5
			C144.5,137,142.9,135.5,142.9,132.5z"/>
		<path class="st0" d="M164,135.7l0.5-1.1c0.7,0.7,2,1.2,3.3,1.2c1.7,0,2.5-0.7,2.5-1.6c0-2.5-6.1-0.9-6.1-4.7
			c0-1.6,1.2-2.9,3.9-2.9c1.2,0,2.4,0.3,3.2,0.9l-0.5,1.2c-0.9-0.6-1.9-0.8-2.8-0.8c-1.7,0-2.5,0.7-2.5,1.6c0,2.5,6.1,0.9,6.1,4.6
			c0,1.5-1.2,2.9-3.9,2.9C166.3,137,164.8,136.5,164,135.7z"/>
		<path class="st0" d="M184.5,126.8h1.4v10.1h-1.4V126.8z"/>
		<path class="st0" d="M208.2,126.8v10.1h-1.2l-6.1-7.5v7.5h-1.4v-10.1h1.2l6.1,7.5v-7.5H208.2z"/>
		<path class="st0" d="M229.2,135.6v1.3h-7.3v-10.1h7.1v1.3h-5.7v3.1h5.1v1.2h-5.1v3.3H229.2z"/>
		<path class="st0" d="M241.2,135.7l0.5-1.1c0.7,0.7,2,1.2,3.3,1.2c1.7,0,2.5-0.7,2.5-1.6c0-2.5-6.1-0.9-6.1-4.7
			c0-1.6,1.2-2.9,3.9-2.9c1.2,0,2.4,0.3,3.2,0.9l-0.5,1.2c-0.9-0.6-1.9-0.8-2.8-0.8c-1.7,0-2.5,0.7-2.5,1.6c0,2.5,6.1,0.9,6.1,4.6
			c0,1.5-1.2,2.9-3.9,2.9C243.5,137,242,136.5,241.2,135.7z"/>
		<path class="st0" d="M260.7,135.7l0.5-1.1c0.7,0.7,2,1.2,3.3,1.2c1.7,0,2.5-0.7,2.5-1.6c0-2.5-6.1-0.9-6.1-4.7
			c0-1.6,1.2-2.9,3.9-2.9c1.2,0,2.4,0.3,3.2,0.9l-0.5,1.2c-0.9-0.6-1.9-0.8-2.8-0.8c-1.7,0-2.5,0.7-2.5,1.6c0,2.5,6.1,0.9,6.1,4.6
			c0,1.5-1.2,2.9-3.9,2.9C263.1,137,261.5,136.5,260.7,135.7z"/>
		<path class="st0" d="M294.8,135.7l0.5-1.1c0.8,0.7,2,1.2,3.3,1.2c1.7,0,2.5-0.7,2.5-1.6c0-2.5-6.1-0.9-6.1-4.7
			c0-1.6,1.2-2.9,3.9-2.9c1.2,0,2.4,0.3,3.2,0.9l-0.5,1.2c-0.9-0.6-1.9-0.8-2.8-0.8c-1.7,0-2.5,0.7-2.5,1.6c0,2.5,6.1,0.9,6.1,4.6
			c0,1.5-1.2,2.9-3.9,2.9C297.1,137,295.6,136.5,294.8,135.7z"/>
		<path class="st0" d="M314.4,131.8c0-3,2.3-5.2,5.4-5.2c3.1,0,5.4,2.2,5.4,5.2c0,3-2.3,5.2-5.4,5.2
			C316.7,137,314.4,134.8,314.4,131.8z M323.7,131.8c0-2.2-1.7-3.9-3.9-3.9c-2.3,0-3.9,1.6-3.9,3.9c0,2.2,1.7,3.9,3.9,3.9
			C322,135.7,323.7,134.1,323.7,131.8z"/>
		<path class="st0" d="M337.9,126.8h1.4v8.8h5.5v1.3h-6.9V126.8z"/>
		<path class="st0" d="M356.8,132.5v-5.7h1.4v5.7c0,2.2,1,3.2,2.8,3.2c1.8,0,2.9-1,2.9-3.2v-5.7h1.4v5.7c0,2.9-1.6,4.5-4.3,4.5
			C358.4,137,356.8,135.5,356.8,132.5z"/>
		<path class="st0" d="M380.7,128.1h-3.5v-1.3h8.4v1.3h-3.5v8.8h-1.4V128.1z"/>
		<path class="st0" d="M397.8,126.8h1.4v10.1h-1.4V126.8z"/>
		<path class="st0" d="M412,131.8c0-3,2.3-5.2,5.4-5.2c3.1,0,5.4,2.2,5.4,5.2c0,3-2.3,5.2-5.4,5.2C414.3,137,412,134.8,412,131.8z
			 M421.3,131.8c0-2.2-1.7-3.9-3.9-3.9c-2.3,0-3.9,1.6-3.9,3.9c0,2.2,1.7,3.9,3.9,3.9C419.6,135.7,421.3,134.1,421.3,131.8z"/>
		<path class="st0" d="M444.2,126.8v10.1h-1.2l-6.1-7.5v7.5h-1.4v-10.1h1.2l6.1,7.5v-7.5H444.2z"/>
		<path class="st0" d="M456.9,135.7l0.5-1.1c0.8,0.7,2,1.2,3.3,1.2c1.7,0,2.5-0.7,2.5-1.6c0-2.5-6.1-0.9-6.1-4.7
			c0-1.6,1.2-2.9,3.9-2.9c1.2,0,2.4,0.3,3.2,0.9l-0.5,1.2c-0.9-0.6-1.9-0.8-2.8-0.8c-1.7,0-2.5,0.7-2.5,1.6c0,2.5,6.1,0.9,6.1,4.6
			c0,1.5-1.2,2.9-3.9,2.9C459.3,137,457.7,136.5,456.9,135.7z"/>
	</g>
	<g>
		<path class="st0" d="M489.7,43.2c1.5,0,2.7,0.3,3.5,0.8c0.8,0.5,1.2,1.4,1.2,2.5c0,0.7-0.2,1.3-0.5,1.7c-0.3,0.4-0.8,0.8-1.4,1
			c0.2,0.3,0.4,0.5,0.6,0.9c0.2,0.3,0.4,0.7,0.7,1c0.2,0.4,0.4,0.7,0.6,1.1c0.2,0.4,0.4,0.8,0.6,1.1h-2.6c-0.2-0.3-0.4-0.7-0.6-1
			c-0.2-0.3-0.4-0.7-0.6-1c-0.2-0.3-0.4-0.6-0.6-0.9c-0.2-0.3-0.4-0.5-0.6-0.8H489v3.7h-2.3v-10c0.5-0.1,1-0.2,1.5-0.2
			C488.8,43.2,489.3,43.2,489.7,43.2z M489.8,45.1c-0.2,0-0.3,0-0.4,0c-0.1,0-0.3,0-0.4,0v2.8h0.6c0.9,0,1.5-0.1,1.8-0.3
			c0.4-0.2,0.6-0.6,0.6-1.1c0-0.5-0.2-0.9-0.6-1.1C491.1,45.2,490.5,45.1,489.8,45.1z"/>
	</g>
	<g>
		<path class="st0" d="M490.3,58.2c-5.5,0-9.9-4.5-9.9-9.9c0-5.5,4.5-9.9,9.9-9.9c5.5,0,9.9,4.5,9.9,9.9
			C500.2,53.7,495.8,58.2,490.3,58.2z M490.3,39.8c-4.7,0-8.5,3.8-8.5,8.5s3.8,8.5,8.5,8.5c4.7,0,8.5-3.8,8.5-8.5
			S495,39.8,490.3,39.8z"/>
	</g>
	<g>
		<path class="st0" d="M62.1,117.8c-11.8,0-20.8-3.3-27-9.8c-6.2-6.6-9.3-15.9-9.3-27.9c0-6,0.9-11.4,2.8-16.1
			c1.9-4.7,4.5-8.7,7.7-11.9c3.3-3.2,7.2-5.7,11.7-7.4c4.5-1.7,9.5-2.5,14.8-2.5c3.1,0,5.9,0.2,8.4,0.7c2.5,0.5,4.7,1,6.6,1.6
			c1.9,0.6,3.5,1.2,4.7,1.8s2.2,1.1,2.7,1.5l-4.7,13.2c-2.2-1.2-4.8-2.2-7.8-3c-3-0.8-6.3-1.3-10.1-1.3c-2.5,0-5,0.4-7.4,1.3
			c-2.4,0.8-4.5,2.2-6.4,4c-1.8,1.8-3.3,4.2-4.4,7.2c-1.1,2.9-1.7,6.5-1.7,10.7c0,3.4,0.4,6.5,1.1,9.4c0.7,2.9,1.9,5.4,3.6,7.5
			c1.6,2.1,3.8,3.8,6.4,5c2.7,1.2,5.9,1.8,9.6,1.8c2.4,0,4.5-0.1,6.4-0.4c1.9-0.3,3.6-0.6,5-1c1.5-0.4,2.8-0.8,3.9-1.3
			c1.1-0.5,2.1-0.9,3-1.4l4.5,13.1c-2.3,1.4-5.5,2.7-9.7,3.8C72.4,117.3,67.6,117.8,62.1,117.8z"/>
		<path class="st0" d="M118.1,43c10.9,0,19.2,1.9,25,5.8c5.8,3.9,8.7,9.9,8.7,18.1c0,5.1-1.2,9.2-3.5,12.4
			c-2.3,3.2-5.7,5.7-10.1,7.5c1.5,1.8,3,3.9,4.6,6.2c1.6,2.3,3.2,4.8,4.8,7.3c1.6,2.5,3.1,5.2,4.6,8c1.5,2.8,2.8,5.5,4.1,8.1h-18.3
			c-1.3-2.4-2.7-4.8-4-7.2c-1.4-2.4-2.8-4.8-4.2-7.1c-1.4-2.3-2.9-4.5-4.3-6.5c-1.4-2.1-2.8-3.9-4.2-5.6h-8.1v26.5H96.8V44.9
			c3.6-0.7,7.2-1.2,11-1.5C111.7,43.2,115.1,43,118.1,43z M119,56.9c-1.2,0-2.3,0-3.2,0.1c-0.9,0.1-1.8,0.1-2.7,0.2v19.7h4.6
			c6.1,0,10.5-0.8,13.2-2.3c2.7-1.5,4-4.1,4-7.8c0-3.6-1.3-6.1-4-7.6C128.2,57.7,124.2,56.9,119,56.9z"/>
		<path class="st0" d="M324.5,116.4c-4.7-8.3-9.7-16.5-15.2-24.6c-5.4-8.1-11.2-15.7-17.4-22.9v47.5h-16.1V43.8h13.3
			c2.3,2.3,4.9,5.1,7.6,8.5c2.8,3.4,5.6,6.9,8.5,10.7c2.9,3.8,5.8,7.7,8.6,11.8c2.9,4.1,5.5,8,8.1,11.8V43.8h16.2v72.5H324.5z"/>
		<path class="st0" d="M383.4,117.8c-5.1,0-9.5-0.7-13.2-2.1c-3.7-1.4-6.8-3.4-9.2-6c-2.4-2.5-4.2-5.6-5.3-9.1
			c-1.2-3.5-1.7-7.4-1.7-11.7V43.8h16.3v43.8c0,2.9,0.3,5.4,1,7.5c0.7,2.1,1.6,3.7,2.7,5c1.1,1.3,2.5,2.2,4.2,2.8
			c1.6,0.6,3.4,0.8,5.4,0.8c4,0,7.2-1.2,9.7-3.7c2.5-2.4,3.7-6.6,3.7-12.5V43.8h16.3V89c0,4.3-0.6,8.2-1.8,11.7
			c-1.2,3.6-3,6.6-5.4,9.2c-2.4,2.5-5.5,4.5-9.3,5.9C393,117.1,388.5,117.8,383.4,117.8z"/>
		<path class="st0" d="M448.8,103.9c2.3,0,4.2-0.2,5.7-0.6c1.5-0.4,2.7-0.9,3.6-1.6c0.9-0.7,1.5-1.4,1.9-2.4c0.4-0.9,0.5-1.9,0.5-3
			c0-2.4-1.1-4.3-3.3-5.9c-2.2-1.6-6.1-3.3-11.5-5.1c-2.4-0.8-4.7-1.8-7.1-2.9c-2.4-1.1-4.5-2.4-6.4-4.1c-1.9-1.6-3.4-3.6-4.6-6
			c-1.2-2.3-1.8-5.2-1.8-8.5c0-3.3,0.6-6.4,1.9-9.1c1.3-2.7,3-5,5.3-6.9c2.3-1.9,5.1-3.3,8.4-4.3c3.3-1,7-1.5,11.1-1.5
			c4.9,0,9.1,0.5,12.7,1.6c3.6,1,6.5,2.2,8.8,3.5l-4.7,12.9c-2-1-4.3-2-6.8-2.8c-2.5-0.8-5.5-1.2-8.9-1.2c-3.9,0-6.7,0.5-8.4,1.6
			c-1.7,1.1-2.6,2.7-2.6,5c0,1.3,0.3,2.4,0.9,3.3c0.6,0.9,1.5,1.7,2.7,2.5c1.2,0.7,2.5,1.4,4,2c1.5,0.6,3.2,1.2,5,1.8
			c3.8,1.4,7,2.8,9.8,4.1c2.8,1.4,5.1,2.9,7,4.8c1.8,1.8,3.2,3.9,4.1,6.4c0.9,2.4,1.4,5.4,1.4,8.9c0,6.8-2.4,12-7.1,15.8
			c-4.7,3.7-11.9,5.6-21.5,5.6c-3.2,0-6.1-0.2-8.7-0.6c-2.6-0.4-4.9-0.9-6.9-1.4c-2-0.6-3.7-1.2-5.1-1.8c-1.4-0.6-2.6-1.2-3.6-1.8
			l4.6-13c2.2,1.2,4.8,2.3,8,3.2S444.2,103.9,448.8,103.9z"/>
		<g>
			<g>
				<path class="st1" d="M175.3,79.5c0,10.6,8.6,19.2,19.2,19.2s19.2-8.6,19.2-19.2c0-0.1,0-0.1,0-0.2h-2.2v-1.1h-18.2
					c0-6.4,1.6-12.4,4.4-17.7c-1.1-0.2-2.1-0.3-3.3-0.3C183.9,60.3,175.3,68.9,175.3,79.5z"/>
				<path class="st2" d="M213.7,79.5c0,10.6-8.6,19.2-19.2,19.2s-19.2-8.6-19.2-19.2s8.6-19.2,19.2-19.2c1.1,0,2.2,0.1,3.3,0.3
					c3.2-6,8-10.9,13.8-14.4c-5.1-2.6-10.9-4.1-17-4.1c-20.7,0-37.5,16.8-37.5,37.5s16.8,37.5,37.5,37.5c20.7,0,37.5-16.8,37.5-37.5
					c0-0.1,0-0.1,0-0.2h-18.2C213.7,79.4,213.7,79.5,213.7,79.5z"/>
			</g>
			<g>
				<path class="st1" d="M252.5,79.5c0-10.6-8.6-19.2-19.2-19.2c-10.6,0-19.2,8.5-19.2,19.1h3.2v1.4h17.2c0,6.4-1.6,12.4-4.4,17.7
					c1.1,0.2,2.1,0.3,3.3,0.3C243.9,98.8,252.5,90.1,252.5,79.5z"/>
				<path class="st3" d="M233.3,42.1c-20.6,0-37.4,16.7-37.5,37.3H214c0.1-10.6,8.6-19.1,19.2-19.1c10.6,0,19.2,8.6,19.2,19.2
					s-8.6,19.2-19.2,19.2c-1.1,0-2.2-0.1-3.3-0.3c-3.2,6-8,10.9-13.8,14.4c5.1,2.6,10.9,4.1,17,4.1c20.7,0,37.5-16.8,37.5-37.5
					S254,42.1,233.3,42.1z"/>
			</g>
		</g>
	</g>
</g>
</svg>
