<?xml version="1.0" encoding="utf-8"?>
<!-- Generator: Adobe Illustrator 23.1.0, SVG Export Plug-In . SVG Version: 6.00 Build 0)  -->
<svg version="1.1" id="Layer_1" xmlns="http://www.w3.org/2000/svg" xmlns:xlink="http://www.w3.org/1999/xlink" x="0px" y="0px"
	 viewBox="0 0 526.1 175.4" style="enable-background:new 0 0 526.1 175.4;" xml:space="preserve">
<style type="text/css">
	.st0{fill:#3D3D3D;}
	.st1{fill:none;}
	.st2{fill:#4176B9;}
	.st3{fill:#45B549;}
</style>
<g>
	<g>
		<path class="st0" d="M55.5,126.3l-3.3,10h-1.5l-2.7-8l-2.7,8h-1.5l-3.3-10h1.5l2.7,8.1l2.8-8.1h1.3l2.7,8.1l2.7-8.1H55.5z"/>
		<path class="st0" d="M74.9,135.1v1.2h-7.2v-10h7v1.2h-5.6v3.1h5v1.2h-5v3.2H74.9z"/>
		<path class="st0" d="M96.2,133.6c0,1.7-1.3,2.7-3.8,2.7h-4.8v-10h4.5c2.3,0,3.6,1,3.6,2.6c0,1.1-0.6,1.8-1.3,2.2
			C95.5,131.5,96.2,132.3,96.2,133.6z M89.1,127.5v3.2H92c1.5,0,2.3-0.5,2.3-1.6c0-1.1-0.8-1.6-2.3-1.6H89.1z M94.8,133.5
			c0-1.2-0.9-1.7-2.4-1.7h-3.3v3.3h3.3C93.9,135.2,94.8,134.7,94.8,133.5z"/>
		<path class="st0" d="M131.8,133.6c0,1.7-1.3,2.7-3.8,2.7h-4.8v-10h4.5c2.3,0,3.6,1,3.6,2.6c0,1.1-0.6,1.8-1.3,2.2
			C131,131.5,131.8,132.3,131.8,133.6z M124.6,127.5v3.2h2.9c1.5,0,2.3-0.5,2.3-1.6c0-1.1-0.8-1.6-2.3-1.6H124.6z M130.3,133.5
			c0-1.2-0.9-1.7-2.4-1.7h-3.3v3.3h3.3C129.5,135.2,130.3,134.7,130.3,133.5z"/>
		<path class="st0" d="M144.4,132v-5.7h1.4v5.6c0,2.2,1,3.2,2.8,3.2c1.8,0,2.8-1,2.8-3.2v-5.6h1.4v5.7c0,2.9-1.6,4.4-4.2,4.4
			C145.9,136.4,144.4,134.9,144.4,132z"/>
		<path class="st0" d="M165.3,135.2l0.5-1.1c0.7,0.7,2,1.2,3.3,1.2c1.7,0,2.5-0.7,2.5-1.5c0-2.4-6-0.9-6-4.6c0-1.5,1.2-2.8,3.8-2.8
			c1.2,0,2.4,0.3,3.2,0.9l-0.5,1.1c-0.9-0.6-1.9-0.8-2.7-0.8c-1.7,0-2.4,0.7-2.4,1.6c0,2.4,6,0.9,6,4.6c0,1.5-1.2,2.8-3.9,2.8
			C167.5,136.4,166,135.9,165.3,135.2z"/>
		<path class="st0" d="M185.5,126.3h1.4v10h-1.4V126.3z"/>
		<path class="st0" d="M208.9,126.3v10h-1.2l-6-7.4v7.4h-1.4v-10h1.2l6,7.4v-7.4H208.9z"/>
		<path class="st0" d="M229.6,135.1v1.2h-7.2v-10h7v1.2h-5.6v3.1h5v1.2h-5v3.2H229.6z"/>
		<path class="st0" d="M241.5,135.2l0.5-1.1c0.7,0.7,2,1.2,3.3,1.2c1.7,0,2.5-0.7,2.5-1.5c0-2.4-6-0.9-6-4.6c0-1.5,1.2-2.8,3.8-2.8
			c1.2,0,2.4,0.3,3.2,0.9l-0.5,1.1c-0.9-0.6-1.9-0.8-2.7-0.8c-1.7,0-2.4,0.7-2.4,1.6c0,2.4,6,0.9,6,4.6c0,1.5-1.2,2.8-3.9,2.8
			C243.8,136.4,242.3,135.9,241.5,135.2z"/>
		<path class="st0" d="M260.8,135.2l0.5-1.1c0.7,0.7,2,1.2,3.3,1.2c1.7,0,2.5-0.7,2.5-1.5c0-2.4-6-0.9-6-4.6c0-1.5,1.2-2.8,3.8-2.8
			c1.2,0,2.4,0.3,3.2,0.9l-0.5,1.1c-0.9-0.6-1.9-0.8-2.7-0.8c-1.7,0-2.4,0.7-2.4,1.6c0,2.4,6,0.9,6,4.6c0,1.5-1.2,2.8-3.9,2.8
			C263.1,136.4,261.6,135.9,260.8,135.2z"/>
		<path class="st0" d="M294.4,135.2l0.5-1.1c0.7,0.7,2,1.2,3.3,1.2c1.7,0,2.5-0.7,2.5-1.5c0-2.4-6-0.9-6-4.6c0-1.5,1.2-2.8,3.8-2.8
			c1.2,0,2.4,0.3,3.2,0.9l-0.5,1.1c-0.9-0.6-1.9-0.8-2.7-0.8c-1.7,0-2.4,0.7-2.4,1.6c0,2.4,6,0.9,6,4.6c0,1.5-1.2,2.8-3.9,2.8
			C296.7,136.4,295.2,135.9,294.4,135.2z"/>
		<path class="st0" d="M313.8,131.3c0-2.9,2.2-5.1,5.3-5.1c3,0,5.3,2.2,5.3,5.1c0,2.9-2.3,5.1-5.3,5.1
			C316,136.4,313.8,134.2,313.8,131.3z M323,131.3c0-2.2-1.7-3.8-3.9-3.8c-2.2,0-3.9,1.6-3.9,3.8c0,2.2,1.7,3.8,3.9,3.8
			C321.3,135.2,323,133.5,323,131.3z"/>
		<path class="st0" d="M337,126.3h1.4v8.7h5.4v1.2H337V126.3z"/>
		<path class="st0" d="M355.7,132v-5.7h1.4v5.6c0,2.2,1,3.2,2.8,3.2s2.8-1,2.8-3.2v-5.6h1.4v5.7c0,2.9-1.6,4.4-4.2,4.4
			C357.3,136.4,355.7,134.9,355.7,132z"/>
		<path class="st0" d="M379.3,127.6h-3.4v-1.2h8.2v1.2h-3.4v8.7h-1.4V127.6z"/>
		<path class="st0" d="M396.1,126.3h1.4v10h-1.4V126.3z"/>
		<path class="st0" d="M410.2,131.3c0-2.9,2.2-5.1,5.3-5.1c3,0,5.3,2.2,5.3,5.1c0,2.9-2.3,5.1-5.3,5.1
			C412.5,136.4,410.2,134.2,410.2,131.3z M419.4,131.3c0-2.2-1.7-3.8-3.9-3.8c-2.2,0-3.9,1.6-3.9,3.8c0,2.2,1.7,3.8,3.9,3.8
			C417.7,135.2,419.4,133.5,419.4,131.3z"/>
		<path class="st0" d="M442,126.3v10h-1.2l-6-7.4v7.4h-1.4v-10h1.2l6,7.4v-7.4H442z"/>
		<path class="st0" d="M454.6,135.2l0.5-1.1c0.7,0.7,2,1.2,3.3,1.2c1.7,0,2.5-0.7,2.5-1.5c0-2.4-6-0.9-6-4.6c0-1.5,1.2-2.8,3.8-2.8
			c1.2,0,2.4,0.3,3.2,0.9l-0.5,1.1c-0.9-0.6-1.9-0.8-2.7-0.8c-1.7,0-2.4,0.7-2.4,1.6c0,2.4,6,0.9,6,4.6c0,1.5-1.2,2.8-3.9,2.8
			C456.8,136.4,455.4,135.9,454.6,135.2z"/>
	</g>
	<g>
		<path class="st0" d="M486.9,43.7c1.5,0,2.7,0.3,3.5,0.8s1.2,1.4,1.2,2.5c0,0.7-0.2,1.3-0.5,1.7c-0.3,0.4-0.8,0.8-1.4,1
			c0.2,0.3,0.4,0.5,0.6,0.9c0.2,0.3,0.4,0.7,0.7,1s0.4,0.7,0.6,1.1c0.2,0.4,0.4,0.8,0.6,1.1h-2.5c-0.2-0.3-0.4-0.7-0.6-1
			c-0.2-0.3-0.4-0.7-0.6-1c-0.2-0.3-0.4-0.6-0.6-0.9c-0.2-0.3-0.4-0.5-0.6-0.8h-1.1v3.7H484V44c0.5-0.1,1-0.2,1.5-0.2
			C486,43.8,486.5,43.7,486.9,43.7z M487,45.7c-0.2,0-0.3,0-0.4,0c-0.1,0-0.3,0-0.4,0v2.7h0.6c0.8,0,1.5-0.1,1.8-0.3
			s0.6-0.6,0.6-1.1c0-0.5-0.2-0.8-0.6-1C488.3,45.8,487.7,45.7,487,45.7z"/>
	</g>
	<g>
		<path class="st0" d="M487.5,58.6c-5.4,0-9.8-4.4-9.8-9.8c0-5.4,4.4-9.8,9.8-9.8c5.4,0,9.8,4.4,9.8,9.8
			C497.3,54.2,492.9,58.6,487.5,58.6z M487.5,40.4c-4.6,0-8.4,3.8-8.4,8.4s3.8,8.4,8.4,8.4c4.6,0,8.4-3.8,8.4-8.4
			S492.1,40.4,487.5,40.4z"/>
	</g>
	<g>
		<path class="st0" d="M64.6,117.5c-11.6,0-20.5-3.2-26.6-9.7c-6.1-6.5-9.1-15.7-9.1-27.6c0-5.9,0.9-11.2,2.8-15.9
			c1.9-4.7,4.4-8.6,7.7-11.8c3.2-3.2,7.1-5.6,11.6-7.3c4.5-1.7,9.3-2.5,14.6-2.5c3,0,5.8,0.2,8.3,0.7c2.5,0.5,4.7,1,6.5,1.6
			c1.9,0.6,3.4,1.2,4.7,1.8c1.2,0.6,2.1,1.1,2.7,1.4l-4.7,13c-2.2-1.2-4.8-2.2-7.7-3c-2.9-0.8-6.3-1.2-10-1.2
			c-2.5,0-4.9,0.4-7.3,1.2c-2.4,0.8-4.5,2.2-6.3,4c-1.8,1.8-3.3,4.2-4.4,7.1c-1.1,2.9-1.7,6.4-1.7,10.5c0,3.3,0.4,6.4,1.1,9.3
			c0.7,2.9,1.9,5.3,3.5,7.4c1.6,2.1,3.7,3.7,6.4,4.9c2.6,1.2,5.8,1.8,9.5,1.8c2.3,0,4.4-0.1,6.3-0.4c1.9-0.3,3.5-0.6,5-1
			s2.7-0.8,3.8-1.3c1.1-0.5,2.1-0.9,3-1.3l4.4,12.9c-2.3,1.4-5.5,2.6-9.6,3.7C74.8,116.9,70,117.5,64.6,117.5z"/>
		<path class="st0" d="M119.9,43.6c10.8,0,19,1.9,24.7,5.7c5.7,3.8,8.6,9.8,8.6,17.8c0,5-1.2,9.1-3.5,12.3s-5.6,5.6-10,7.4
			c1.4,1.8,3,3.8,4.5,6.2c1.6,2.3,3.2,4.7,4.7,7.2c1.6,2.5,3,5.1,4.5,7.9c1.4,2.7,2.8,5.4,4,8h-18c-1.3-2.3-2.6-4.7-4-7.1
			c-1.3-2.4-2.7-4.8-4.1-7c-1.4-2.3-2.8-4.4-4.2-6.5c-1.4-2-2.8-3.9-4.2-5.5h-8v26.2H98.9V45.4c3.5-0.7,7.1-1.2,10.9-1.4
			C113.5,43.7,116.9,43.6,119.9,43.6z M120.8,57.3c-1.2,0-2.2,0-3.2,0.1c-0.9,0.1-1.8,0.1-2.6,0.2v19.4h4.5c6.1,0,10.4-0.8,13-2.3
			c2.6-1.5,3.9-4.1,3.9-7.8c0-3.5-1.3-6-4-7.5C129.9,58.1,126,57.3,120.8,57.3z"/>
		<path class="st0" d="M323.8,116.1c-4.6-8.2-9.6-16.3-15-24.3c-5.4-8-11.1-15.5-17.2-22.6v46.9h-15.9V44.4h13.1
			c2.3,2.3,4.8,5.1,7.5,8.4c2.8,3.3,5.6,6.8,8.4,10.6c2.9,3.8,5.7,7.6,8.5,11.7c2.8,4,5.5,7.9,8,11.6V44.4h16v71.6H323.8z"/>
		<path class="st0" d="M381.9,117.5c-5,0-9.4-0.7-13-2.1c-3.7-1.4-6.7-3.4-9-5.9c-2.4-2.5-4.1-5.5-5.3-9c-1.1-3.5-1.7-7.3-1.7-11.5
			V44.4H369v43.2c0,2.9,0.3,5.4,1,7.4c0.7,2,1.6,3.7,2.7,5c1.1,1.3,2.5,2.2,4.1,2.7c1.6,0.6,3.4,0.8,5.3,0.8c3.9,0,7.1-1.2,9.6-3.6
			c2.4-2.4,3.7-6.5,3.7-12.3V44.4h16.1V89c0,4.2-0.6,8.1-1.8,11.6c-1.2,3.5-3,6.5-5.4,9c-2.4,2.5-5.5,4.5-9.2,5.8
			C391.4,116.8,387,117.5,381.9,117.5z"/>
		<path class="st0" d="M446.5,103.8c2.3,0,4.1-0.2,5.6-0.6c1.5-0.4,2.7-0.9,3.6-1.6c0.9-0.7,1.5-1.4,1.9-2.3c0.3-0.9,0.5-1.9,0.5-3
			c0-2.3-1.1-4.3-3.3-5.8c-2.2-1.6-6-3.2-11.4-5c-2.3-0.8-4.7-1.8-7-2.8c-2.3-1.1-4.4-2.4-6.3-4c-1.9-1.6-3.4-3.6-4.5-5.9
			c-1.2-2.3-1.8-5.1-1.8-8.4c0-3.3,0.6-6.3,1.9-8.9c1.2-2.7,3-4.9,5.3-6.8c2.3-1.9,5-3.3,8.3-4.3c3.2-1,6.9-1.5,11-1.5
			c4.8,0,9,0.5,12.5,1.6c3.5,1,6.4,2.2,8.7,3.4l-4.7,12.7c-2-1-4.2-1.9-6.7-2.7c-2.4-0.8-5.4-1.2-8.8-1.2c-3.9,0-6.6,0.5-8.3,1.6
			c-1.7,1.1-2.5,2.7-2.5,4.9c0,1.3,0.3,2.4,0.9,3.3c0.6,0.9,1.5,1.7,2.6,2.4c1.1,0.7,2.4,1.4,3.9,2c1.5,0.6,3.1,1.2,4.9,1.8
			c3.7,1.4,7,2.7,9.7,4.1c2.8,1.3,5,2.9,6.9,4.7c1.8,1.8,3.2,3.9,4.1,6.3c0.9,2.4,1.3,5.3,1.3,8.8c0,6.7-2.3,11.9-7,15.6
			c-4.7,3.7-11.8,5.5-21.2,5.5c-3.2,0-6-0.2-8.6-0.6c-2.6-0.4-4.8-0.8-6.8-1.4s-3.7-1.1-5.1-1.8c-1.4-0.6-2.6-1.2-3.6-1.8l4.5-12.8
			c2.1,1.2,4.8,2.2,7.9,3.2C438.1,103.3,441.9,103.8,446.5,103.8z"/>
		<g>
			<g>
				<path class="st1" d="M176.4,79.6c0,10.5,8.5,19,19,19s19-8.5,19-19c0-0.1,0-0.1,0-0.2h-2.2v-1.1h-17.9c0-6.3,1.6-12.3,4.4-17.5
					c-1-0.2-2.1-0.3-3.2-0.3C184.9,60.7,176.4,69.2,176.4,79.6z"/>
				<path class="st2" d="M214.3,79.6c0,10.5-8.5,19-19,19s-19-8.5-19-19s8.5-19,19-19c1.1,0,2.2,0.1,3.2,0.3
					c3.2-5.9,7.9-10.8,13.6-14.2c-5-2.6-10.7-4.1-16.8-4.1c-20.4,0-37,16.6-37,37s16.6,37,37,37c20.4,0,37-16.6,37-37
					c0-0.1,0-0.1,0-0.2h-18C214.3,79.5,214.3,79.6,214.3,79.6z"/>
			</g>
			<g>
				<path class="st1" d="M252.6,79.6c0-10.5-8.5-19-19-19c-10.4,0-18.9,8.4-19,18.9h3.2v1.4h17c0,6.3-1.6,12.3-4.4,17.5
					c1,0.2,2.1,0.3,3.2,0.3C244.1,98.6,252.6,90.1,252.6,79.6z"/>
				<path class="st3" d="M233.6,42.6c-20.4,0-36.9,16.5-37,36.9h18c0.1-10.4,8.5-18.9,19-18.9c10.5,0,19,8.5,19,19s-8.5,19-19,19
					c-1.1,0-2.2-0.1-3.2-0.3c-3.2,5.9-7.9,10.8-13.6,14.2c5,2.6,10.7,4.1,16.8,4.1c20.4,0,37-16.6,37-37S254.1,42.6,233.6,42.6z"/>
			</g>
		</g>
	</g>
</g>
</svg>
