<?xml version="1.0" encoding="utf-8"?>
<!-- Generator: Adobe Illustrator 23.1.0, SVG Export Plug-In . SVG Version: 6.00 Build 0)  -->
<svg version="1.1" id="Layer_1" xmlns="http://www.w3.org/2000/svg" xmlns:xlink="http://www.w3.org/1999/xlink" x="0px" y="0px"
	 viewBox="0 0 526.1 175.4" style="enable-background:new 0 0 526.1 175.4;" xml:space="preserve">
<style type="text/css">
	.st0{fill:#3D3D3D;}
	.st1{fill:none;}
	.st2{fill:#4176B9;}
	.st3{fill:#45B549;}
</style>
<g>
	<g>
		<path class="st0" d="M47.7,127.8l-3.5,10.3h-1.6l-2.8-8.3l-2.8,8.3h-1.6L32,127.8h1.5l2.8,8.4l2.9-8.4h1.4l2.9,8.5l2.9-8.5H47.7z"
			/>
		<path class="st0" d="M67.9,136.8v1.3h-7.5v-10.3h7.3v1.3h-5.8v3.2H67v1.3h-5.2v3.3H67.9z"/>
		<path class="st0" d="M90,135.3c0,1.8-1.3,2.8-4,2.8h-4.9v-10.3h4.6c2.4,0,3.7,1,3.7,2.7c0,1.1-0.6,1.9-1.4,2.3
			C89.2,133.1,90,134,90,135.3z M82.6,129v3.3h3c1.5,0,2.4-0.6,2.4-1.7c0-1.1-0.9-1.7-2.4-1.7H82.6z M88.5,135.2
			c0-1.2-0.9-1.7-2.5-1.7h-3.4v3.4H86C87.6,136.9,88.5,136.4,88.5,135.2z"/>
		<path class="st0" d="M126.9,135.3c0,1.8-1.3,2.8-4,2.8H118v-10.3h4.6c2.4,0,3.7,1,3.7,2.7c0,1.1-0.6,1.9-1.4,2.3
			C126.1,133.1,126.9,134,126.9,135.3z M119.5,129v3.3h3c1.5,0,2.4-0.6,2.4-1.7c0-1.1-0.9-1.7-2.4-1.7H119.5z M125.4,135.2
			c0-1.2-0.9-1.7-2.5-1.7h-3.4v3.4h3.4C124.5,136.9,125.4,136.4,125.4,135.2z"/>
		<path class="st0" d="M139.9,133.7v-5.9h1.5v5.8c0,2.3,1,3.3,2.9,3.3c1.9,0,2.9-1,2.9-3.3v-5.8h1.4v5.9c0,3-1.6,4.6-4.4,4.6
			C141.6,138.2,139.9,136.7,139.9,133.7z"/>
		<path class="st0" d="M161.6,136.9l0.5-1.2c0.8,0.7,2.1,1.2,3.4,1.2c1.8,0,2.6-0.7,2.6-1.6c0-2.5-6.3-0.9-6.3-4.8c0-1.6,1.2-3,4-3
			c1.2,0,2.5,0.3,3.3,0.9l-0.5,1.2c-0.9-0.6-1.9-0.8-2.8-0.8c-1.8,0-2.5,0.7-2.5,1.6c0,2.5,6.3,0.9,6.3,4.7c0,1.6-1.3,2.9-4,2.9
			C164,138.2,162.4,137.7,161.6,136.9z"/>
		<path class="st0" d="M182.6,127.8h1.5v10.3h-1.5V127.8z"/>
		<path class="st0" d="M206.9,127.8v10.3h-1.2l-6.2-7.7v7.7H198v-10.3h1.2l6.2,7.7v-7.7H206.9z"/>
		<path class="st0" d="M228.4,136.8v1.3h-7.5v-10.3h7.3v1.3h-5.8v3.2h5.2v1.3h-5.2v3.3H228.4z"/>
		<path class="st0" d="M240.7,136.9l0.5-1.2c0.8,0.7,2.1,1.2,3.4,1.2c1.8,0,2.6-0.7,2.6-1.6c0-2.5-6.3-0.9-6.3-4.8c0-1.6,1.2-3,4-3
			c1.2,0,2.5,0.3,3.3,0.9l-0.5,1.2c-0.9-0.6-1.9-0.8-2.8-0.8c-1.8,0-2.5,0.7-2.5,1.6c0,2.5,6.3,0.9,6.3,4.7c0,1.6-1.3,2.9-4,2.9
			C243,138.2,241.5,137.7,240.7,136.9z"/>
		<path class="st0" d="M260.7,136.9l0.5-1.2c0.8,0.7,2.1,1.2,3.4,1.2c1.8,0,2.6-0.7,2.6-1.6c0-2.5-6.3-0.9-6.3-4.8c0-1.6,1.2-3,4-3
			c1.2,0,2.5,0.3,3.3,0.9l-0.5,1.2c-0.9-0.6-1.9-0.8-2.8-0.8c-1.8,0-2.5,0.7-2.5,1.6c0,2.5,6.3,0.9,6.3,4.7c0,1.6-1.3,2.9-4,2.9
			C263.1,138.2,261.5,137.7,260.7,136.9z"/>
		<path class="st0" d="M295.6,136.9l0.5-1.2c0.8,0.7,2.1,1.2,3.4,1.2c1.8,0,2.6-0.7,2.6-1.6c0-2.5-6.3-0.9-6.3-4.8c0-1.6,1.2-3,4-3
			c1.2,0,2.5,0.3,3.3,0.9l-0.5,1.2c-0.9-0.6-1.9-0.8-2.8-0.8c-1.8,0-2.5,0.7-2.5,1.6c0,2.5,6.3,0.9,6.3,4.7c0,1.6-1.3,2.9-4,2.9
			C297.9,138.2,296.4,137.7,295.6,136.9z"/>
		<path class="st0" d="M315.7,133c0-3,2.3-5.3,5.5-5.3c3.1,0,5.5,2.2,5.5,5.3c0,3-2.3,5.3-5.5,5.3C318,138.2,315.7,136,315.7,133z
			 M325.2,133c0-2.3-1.7-4-4-4c-2.3,0-4,1.7-4,4c0,2.3,1.7,4,4,4C323.5,136.9,325.2,135.2,325.2,133z"/>
		<path class="st0" d="M339.8,127.8h1.5v9.1h5.6v1.3h-7.1V127.8z"/>
		<path class="st0" d="M359.1,133.7v-5.9h1.5v5.8c0,2.3,1,3.3,2.9,3.3c1.9,0,2.9-1,2.9-3.3v-5.8h1.4v5.9c0,3-1.6,4.6-4.4,4.6
			C360.8,138.2,359.1,136.7,359.1,133.7z"/>
		<path class="st0" d="M383.6,129.1h-3.5v-1.3h8.6v1.3h-3.5v9.1h-1.5V129.1z"/>
		<path class="st0" d="M401.1,127.8h1.5v10.3h-1.5V127.8z"/>
		<path class="st0" d="M415.7,133c0-3,2.3-5.3,5.5-5.3c3.1,0,5.5,2.2,5.5,5.3c0,3-2.3,5.3-5.5,5.3C418,138.2,415.7,136,415.7,133z
			 M425.2,133c0-2.3-1.7-4-4-4c-2.3,0-4,1.7-4,4c0,2.3,1.7,4,4,4C423.5,136.9,425.2,135.2,425.2,133z"/>
		<path class="st0" d="M448.7,127.8v10.3h-1.2l-6.2-7.7v7.7h-1.5v-10.3h1.2l6.2,7.7v-7.7H448.7z"/>
		<path class="st0" d="M461.7,136.9l0.5-1.2c0.8,0.7,2.1,1.2,3.4,1.2c1.8,0,2.6-0.7,2.6-1.6c0-2.5-6.3-0.9-6.3-4.8c0-1.6,1.2-3,4-3
			c1.2,0,2.5,0.3,3.3,0.9l-0.5,1.2c-0.9-0.6-1.9-0.8-2.8-0.8c-1.8,0-2.5,0.7-2.5,1.6c0,2.5,6.3,0.9,6.3,4.7c0,1.6-1.3,2.9-4,2.9
			C464.1,138.2,462.5,137.7,461.7,136.9z"/>
	</g>
	<g>
		<path class="st0" d="M495.2,42.1c1.6,0,2.8,0.3,3.6,0.8c0.8,0.6,1.2,1.4,1.2,2.6c0,0.7-0.2,1.3-0.5,1.8c-0.3,0.5-0.8,0.8-1.4,1.1
			c0.2,0.3,0.4,0.6,0.7,0.9c0.2,0.3,0.5,0.7,0.7,1.1c0.2,0.4,0.4,0.7,0.7,1.1c0.2,0.4,0.4,0.8,0.6,1.2h-2.6c-0.2-0.3-0.4-0.7-0.6-1
			c-0.2-0.4-0.4-0.7-0.6-1c-0.2-0.3-0.4-0.6-0.6-0.9c-0.2-0.3-0.4-0.6-0.6-0.8h-1.2v3.8h-2.3V42.4c0.5-0.1,1-0.2,1.6-0.2
			C494.3,42.1,494.8,42.1,495.2,42.1z M495.4,44.1c-0.2,0-0.3,0-0.5,0c-0.1,0-0.3,0-0.4,0V47h0.7c0.9,0,1.5-0.1,1.9-0.3
			c0.4-0.2,0.6-0.6,0.6-1.1c0-0.5-0.2-0.9-0.6-1.1C496.7,44.2,496.1,44.1,495.4,44.1z"/>
	</g>
	<g>
		<path class="st0" d="M495.9,57.5c-5.6,0-10.2-4.6-10.2-10.2c0-5.6,4.6-10.2,10.2-10.2c5.6,0,10.2,4.6,10.2,10.2
			C506,52.9,501.5,57.5,495.9,57.5z M495.9,38.6c-4.8,0-8.7,3.9-8.7,8.7s3.9,8.7,8.7,8.7c4.8,0,8.7-3.9,8.7-8.7
			S500.7,38.6,495.9,38.6z"/>
	</g>
	<g>
		<path class="st0" d="M57.2,118.6c-12.1,0-21.3-3.4-27.6-10.1c-6.3-6.7-9.5-16.3-9.5-28.6c0-6.1,1-11.6,2.9-16.5
			c1.9-4.8,4.6-8.9,7.9-12.2c3.4-3.3,7.4-5.8,12-7.6c4.6-1.7,9.7-2.6,15.1-2.6c3.1,0,6,0.2,8.6,0.7c2.6,0.5,4.8,1,6.8,1.6
			c1.9,0.6,3.5,1.2,4.8,1.9c1.3,0.6,2.2,1.1,2.8,1.5l-4.8,13.5c-2.3-1.2-5-2.3-8-3.1c-3-0.9-6.5-1.3-10.3-1.3
			c-2.6,0-5.1,0.4-7.6,1.3c-2.5,0.9-4.6,2.2-6.5,4.1c-1.9,1.9-3.4,4.3-4.6,7.3c-1.1,3-1.7,6.6-1.7,10.9c0,3.4,0.4,6.6,1.1,9.6
			c0.8,3,2,5.5,3.6,7.7c1.7,2.1,3.9,3.8,6.6,5.1c2.7,1.2,6,1.9,9.9,1.9c2.4,0,4.6-0.1,6.5-0.4c1.9-0.3,3.6-0.6,5.1-1
			c1.5-0.4,2.8-0.8,4-1.3c1.1-0.5,2.2-1,3.1-1.4L82,113c-2.4,1.4-5.7,2.7-10,3.9C67.8,118,62.8,118.6,57.2,118.6z"/>
		<path class="st0" d="M114.5,41.9c11.2,0,19.7,2,25.6,6c5.9,4,8.9,10.1,8.9,18.5c0,5.2-1.2,9.5-3.6,12.7c-2.4,3.3-5.8,5.8-10.3,7.7
			c1.5,1.9,3.1,4,4.7,6.4c1.6,2.4,3.3,4.9,4.9,7.5c1.6,2.6,3.2,5.3,4.7,8.1c1.5,2.8,2.9,5.6,4.2,8.3h-18.7c-1.4-2.4-2.7-4.9-4.1-7.4
			c-1.4-2.5-2.8-4.9-4.3-7.3c-1.5-2.4-2.9-4.6-4.4-6.7c-1.4-2.1-2.9-4-4.3-5.7h-8.3v27.1H92.8V43.9c3.6-0.7,7.4-1.2,11.3-1.5
			S111.4,41.9,114.5,41.9z M115.5,56.2c-1.2,0-2.3,0-3.3,0.1c-1,0.1-1.9,0.1-2.7,0.2v20.2h4.7c6.3,0,10.8-0.8,13.5-2.4
			c2.7-1.6,4.1-4.3,4.1-8c0-3.6-1.4-6.2-4.1-7.8C124.9,57,120.8,56.2,115.5,56.2z"/>
		<path class="st0" d="M326,117.1c-4.8-8.5-10-16.9-15.6-25.2c-5.6-8.3-11.5-16.1-17.8-23.5v48.7h-16.5V42.8h13.6
			c2.4,2.4,5,5.3,7.8,8.7c2.9,3.4,5.8,7.1,8.7,11c3,3.9,5.9,7.9,8.8,12.1c2.9,4.2,5.7,8.2,8.3,12.1V42.8h16.6v74.3H326z"/>
		<path class="st0" d="M386.3,118.6c-5.2,0-9.7-0.7-13.5-2.2c-3.8-1.5-6.9-3.5-9.4-6.1c-2.5-2.6-4.3-5.7-5.5-9.3
			c-1.2-3.6-1.8-7.6-1.8-12V42.8h16.7v44.8c0,3,0.3,5.6,1,7.7c0.7,2.1,1.6,3.8,2.8,5.1c1.2,1.3,2.6,2.3,4.3,2.8
			c1.7,0.6,3.5,0.9,5.5,0.9c4.1,0,7.4-1.2,9.9-3.8c2.5-2.5,3.8-6.8,3.8-12.8V42.8H417V89c0,4.4-0.6,8.4-1.8,12
			c-1.2,3.6-3.1,6.8-5.6,9.4c-2.5,2.6-5.7,4.6-9.5,6.1C396.2,117.9,391.6,118.6,386.3,118.6z"/>
		<path class="st0" d="M453.3,104.4c2.4,0,4.3-0.2,5.8-0.6c1.5-0.4,2.8-0.9,3.7-1.6c0.9-0.7,1.6-1.5,1.9-2.4c0.4-0.9,0.5-2,0.5-3.1
			c0-2.4-1.1-4.5-3.4-6.1c-2.3-1.6-6.2-3.3-11.8-5.2c-2.4-0.9-4.9-1.8-7.3-2.9c-2.4-1.1-4.6-2.5-6.5-4.2c-1.9-1.7-3.5-3.7-4.7-6.1
			c-1.2-2.4-1.8-5.3-1.8-8.7c0-3.4,0.6-6.5,1.9-9.3c1.3-2.8,3.1-5.1,5.5-7c2.4-1.9,5.2-3.4,8.6-4.5c3.4-1,7.1-1.6,11.4-1.6
			c5,0,9.3,0.5,13,1.6s6.7,2.3,9,3.5l-4.8,13.2c-2.1-1.1-4.4-2-6.9-2.8c-2.5-0.8-5.6-1.2-9.2-1.2c-4,0-6.9,0.6-8.6,1.7
			s-2.6,2.8-2.6,5.1c0,1.4,0.3,2.5,1,3.4c0.6,0.9,1.6,1.8,2.7,2.5c1.2,0.7,2.5,1.4,4.1,2c1.5,0.6,3.2,1.2,5.1,1.9
			c3.9,1.4,7.2,2.8,10.1,4.2c2.9,1.4,5.2,3,7.1,4.9c1.9,1.9,3.3,4,4.2,6.5c0.9,2.5,1.4,5.5,1.4,9.1c0,6.9-2.4,12.3-7.3,16.1
			c-4.9,3.8-12.2,5.7-22,5.7c-3.3,0-6.3-0.2-8.9-0.6c-2.6-0.4-5-0.9-7-1.4c-2-0.6-3.8-1.2-5.3-1.8c-1.5-0.6-2.7-1.3-3.7-1.8
			l4.7-13.3c2.2,1.2,5,2.3,8.2,3.3C444.6,103.9,448.6,104.4,453.3,104.4z"/>
		<g>
			<g>
				<path class="st1" d="M173.1,79.3c0,10.9,8.8,19.7,19.7,19.7s19.7-8.8,19.7-19.7c0-0.1,0-0.1,0-0.2h-2.3v-1.1h-18.6
					c0-6.5,1.6-12.7,4.5-18.1c-1.1-0.2-2.2-0.3-3.3-0.3C181.9,59.6,173.1,68.5,173.1,79.3z"/>
				<path class="st2" d="M212.5,79.3c0,10.9-8.8,19.7-19.7,19.7s-19.7-8.8-19.7-19.7s8.8-19.7,19.7-19.7c1.1,0,2.3,0.1,3.3,0.3
					c3.3-6.1,8.2-11.2,14.1-14.8c-5.2-2.7-11.2-4.2-17.4-4.2c-21.2,0-38.4,17.2-38.4,38.4s17.2,38.4,38.4,38.4
					c21.2,0,38.4-17.2,38.4-38.4c0-0.1,0-0.1,0-0.2h-18.7C212.5,79.2,212.5,79.3,212.5,79.3z"/>
			</g>
			<g>
				<path class="st1" d="M252.3,79.3c0-10.9-8.8-19.7-19.7-19.7c-10.8,0-19.6,8.8-19.7,19.6h3.3v1.4h17.6c0,6.5-1.6,12.7-4.5,18.1
					c1.1,0.2,2.2,0.3,3.3,0.3C243.4,99,252.3,90.2,252.3,79.3z"/>
				<path class="st3" d="M232.6,41c-21.2,0-38.3,17.1-38.4,38.3h18.7c0.1-10.8,8.9-19.6,19.7-19.6c10.9,0,19.7,8.8,19.7,19.7
					S243.4,99,232.6,99c-1.1,0-2.3-0.1-3.3-0.3c-3.3,6.1-8.2,11.2-14.1,14.8c5.2,2.7,11.2,4.2,17.4,4.2c21.2,0,38.4-17.2,38.4-38.4
					S253.8,41,232.6,41z"/>
			</g>
		</g>
	</g>
</g>
</svg>
